<?xml version="1.0" standalone="no"?>
<!DOCTYPE svg PUBLIC "-//W3C//DTD SVG 20010904//EN"
 "http://www.w3.org/TR/2001/REC-SVG-20010904/DTD/svg10.dtd">
<svg version="1.0" xmlns="http://www.w3.org/2000/svg"
 width="206.000000pt" height="244.000000pt" viewBox="0 0 206.000000 244.000000"
 preserveAspectRatio="xMidYMid meet">

<g transform="translate(0.000000,244.000000) scale(0.100000,-0.100000)"
fill="#000000" stroke="none">
<path d="M22 2428 c-9 -9 -12 -290 -12 -1205 l0 -1193 24 -15 c21 -14 123 -15
922 -13 l899 3 58 28 c65 33 103 76 123 143 19 64 21 2233 2 2252 -17 17
-1999 17 -2016 0z m1948 -1150 c-5 -1060 -5 -1084 -25 -1117 -11 -19 -38 -43
-60 -55 -40 -21 -48 -21 -920 -24 l-880 -2 0 1140 0 1140 945 0 945 0 -5
-1082z"/>
<path d="M980 2226 c0 -8 -17 -24 -39 -35 -21 -11 -50 -34 -65 -51 -23 -28
-26 -40 -26 -105 0 -52 -4 -76 -15 -85 -29 -24 -21 -51 47 -153 61 -93 43
-123 -98 -160 -50 -14 -105 -32 -123 -41 -53 -28 -92 -141 -59 -174 8 -8 45
-12 100 -12 101 0 95 -11 74 123 -10 68 -10 87 -1 87 7 0 35 7 63 16 l51 17
28 -33 c29 -35 77 -60 115 -60 39 0 106 39 120 71 9 20 18 27 28 23 25 -10 64
-22 93 -29 20 -4 27 -10 23 -23 -2 -9 -7 -56 -11 -104 l-7 -88 84 0 c52 0 89
5 96 12 18 18 14 67 -7 115 -24 51 -64 74 -175 98 -61 14 -87 25 -115 50 -34
31 -35 34 -19 52 9 10 35 49 57 88 40 69 51 108 31 120 -5 3 -10 38 -10 76 0
74 -13 110 -52 145 -33 31 -100 62 -147 70 -34 5 -41 4 -41 -10z m80 -211 c30
-8 72 -15 94 -15 l38 0 -6 -35 c-6 -31 -4 -35 14 -35 32 0 24 -30 -32 -116
-65 -97 -107 -123 -169 -105 -41 12 -65 38 -123 135 -42 69 -44 86 -15 93 18
5 21 11 16 44 -3 24 -1 40 7 43 24 10 124 5 176 -9z m-32 -335 c12 0 38 7 57
15 34 13 36 13 51 -10 43 -65 -92 -128 -173 -80 -45 26 -57 51 -43 86 l12 28
36 -20 c20 -10 47 -19 60 -19z"/>
<path d="M316 1224 c-19 -18 -19 -20 -6 -45 10 -18 25 -19 330 -19 305 0 320
1 330 19 13 25 13 27 -6 45 -13 14 -57 16 -324 16 -267 0 -311 -2 -324 -16z"/>
<path d="M1066 1224 c-19 -18 -19 -20 -6 -45 10 -18 25 -19 345 -19 183 0 340
3 349 6 19 7 21 45 4 62 -9 9 -99 12 -344 12 -289 0 -335 -2 -348 -16z"/>
<path d="M322 938 c-15 -15 -15 -41 0 -56 9 -9 181 -12 714 -12 386 0 709 3
718 6 19 7 21 45 4 62 -17 17 -1419 17 -1436 0z"/>
<path d="M310 641 c-13 -25 -13 -27 6 -45 14 -14 93 -16 724 -16 631 0 710 2
724 16 19 18 19 20 6 45 -10 19 -29 19 -730 19 -701 0 -720 0 -730 -19z"/>
<path d="M1383 363 c-16 -6 -17 -45 -1 -61 8 -8 65 -12 189 -12 190 0 204 4
197 52 -3 23 -3 23 -188 25 -102 1 -191 -1 -197 -4z"/>
</g>
</svg>
